<svg xmlns="http://www.w3.org/2000/svg" xmlns:xlink="http://www.w3.org/1999/xlink" viewBox="0 0 68.85 68.85"><defs><style>.cls-1{fill:none;}.cls-2{isolation:isolate;}.cls-3{clip-path:url(#clip-path);}.cls-4{fill:#006974;}.cls-5{fill:#00707c;}.cls-6{clip-path:url(#clip-path-2);}.cls-7{fill:#006570;}.cls-8{clip-path:url(#clip-path-3);}.cls-9{clip-path:url(#clip-path-4);}.cls-10{clip-path:url(#clip-path-5);}.cls-11{fill:#00c6dc;}.cls-12{clip-path:url(#clip-path-6);}.cls-13{opacity:0.25;}.cls-14{fill:#fbfbfb;}.cls-15{clip-path:url(#clip-path-7);}.cls-16{fill:#486f85;}.cls-17{clip-path:url(#clip-path-8);}.cls-18{clip-path:url(#clip-path-9);}.cls-19{clip-path:url(#clip-path-10);}.cls-20{clip-path:url(#clip-path-11);}.cls-21{clip-path:url(#clip-path-12);}.cls-22{clip-path:url(#clip-path-13);}.cls-23{clip-path:url(#clip-path-14);}.cls-24{fill:#88d2fb;}</style><clipPath id="clip-path"><path class="cls-1" d="M48.44,23.69l-2.17,3.5a6,6,0,0,0-5.76-4.48l2.17-3.5A6,6,0,0,1,48.44,23.69Z"/></clipPath><clipPath id="clip-path-2"><path class="cls-1" d="M17.08,24.47,19.25,21a4,4,0,0,1,3.48-1.76l-2.17,3.5A4,4,0,0,0,17.08,24.47Z"/></clipPath><clipPath id="clip-path-3"><path class="cls-1" d="M16.23,23.94l2.17-3.5a4.4,4.4,0,0,0-.51,3.25l-2.18,3.5A4.4,4.4,0,0,1,16.23,23.94Z"/></clipPath><clipPath id="clip-path-4"><path class="cls-1" d="M51.83,44.92l-2.17,3.5a3.64,3.64,0,0,0,.43-2.73l2.18-3.5A3.69,3.69,0,0,1,51.83,44.92Z"/></clipPath><clipPath id="clip-path-5"><path class="cls-1" d="M52.68,45.45,50.51,49a4.71,4.71,0,0,1-4.14,2.1l2.17-3.5A4.71,4.71,0,0,0,52.68,45.45Z"/></clipPath><clipPath id="clip-path-6"><path class="cls-1" d="M28.6,47.55l-2.18,3.5a7.21,7.21,0,0,1-6.88-5.36l2.18-3.5A7.2,7.2,0,0,0,28.6,47.55Z"/></clipPath><clipPath id="clip-path-7"><path class="cls-1" d="M29.76,33.22l2.17-3.5a2.31,2.31,0,0,1,.72-.74A3.19,3.19,0,0,1,34,28.51a3.86,3.86,0,0,1,.58,0,4.18,4.18,0,0,1,1.55.29A4.58,4.58,0,0,1,38,30.07a7,7,0,0,1,1.3,2.28,6.38,6.38,0,0,1,.41,1.92l-2.17,3.5a6.43,6.43,0,0,0-.42-1.92,7,7,0,0,0-1.29-2.28A4.54,4.54,0,0,0,34,32.26,4.09,4.09,0,0,0,32.41,32a3.77,3.77,0,0,0-.58,0,3.14,3.14,0,0,0-1.35.47A2.31,2.31,0,0,0,29.76,33.22Z"/></clipPath><clipPath id="clip-path-8"><path class="cls-1" d="M39.37,35.79l-2.17,3.5a3.14,3.14,0,0,0,.3-1.52l2.17-3.5A2.92,2.92,0,0,1,39.37,35.79Z"/></clipPath><clipPath id="clip-path-9"><path class="cls-1" d="M44.86,39l-2.18,3.5a.71.71,0,0,1-.51.33l2.17-3.5A.75.75,0,0,0,44.86,39Z"/></clipPath><clipPath id="clip-path-10"><path class="cls-1" d="M44.34,39.33l-2.17,3.5H42a2.86,2.86,0,0,1-.64-.09l2.17-3.5a2.87,2.87,0,0,0,.65.09Z"/></clipPath><clipPath id="clip-path-11"><path class="cls-1" d="M43.55,39.24l-2.17,3.5c-.33-.09-.73-.23-1.2-.41s-1-.39-1.55-.65l2.17-3.5c.57.26,1.08.48,1.55.65S43.22,39.15,43.55,39.24Z"/></clipPath><clipPath id="clip-path-12"><path class="cls-1" d="M38.41,36.81l-2.18,3.5A8.68,8.68,0,0,0,35,39.86a8,8,0,0,1-1-.34L36.15,36a8.68,8.68,0,0,0,1,.34A8.85,8.85,0,0,1,38.41,36.81Z"/></clipPath><clipPath id="clip-path-13"><path class="cls-1" d="M33.64,38.63l2.18-3.5a.53.53,0,0,0-.06.47.74.74,0,0,0,.39.42L34,39.52a.68.68,0,0,1-.39-.42A.52.52,0,0,1,33.64,38.63Z"/></clipPath><clipPath id="clip-path-14"><path class="cls-1" d="M27.24,32.17l2.17-3.5-.11.19A4.46,4.46,0,0,0,28.78,31a7.79,7.79,0,0,0,.51,2.65,9.47,9.47,0,0,0,1.33,2.52,7.69,7.69,0,0,0,1.94,1.88,7,7,0,0,0,2.48,1,7.63,7.63,0,0,0,1.67.18,7.89,7.89,0,0,0,1.18-.08,6.24,6.24,0,0,0,2.91-1l-2.17,3.5a6.24,6.24,0,0,1-2.91,1,8,8,0,0,1-1.18.08,7.72,7.72,0,0,1-1.68-.18,7,7,0,0,1-2.47-1,7.69,7.69,0,0,1-1.94-1.88,9.19,9.19,0,0,1-1.33-2.52,7.79,7.79,0,0,1-.51-2.65,4.46,4.46,0,0,1,.52-2.17Z"/></clipPath></defs><g id="Layer_2" data-name="Layer 2"><g id="Layer_1-2" data-name="Layer 1"><circle cx="34.43" cy="34.43" r="34.43"/><g class="cls-2"><g class="cls-2"><g class="cls-3"><g class="cls-2"><path class="cls-4" d="M48.44,23.69l-2.17,3.5a6,6,0,0,0-5.76-4.48l2.17-3.5a6,6,0,0,1,5.76,4.48"/></g></g></g><polygon class="cls-5" points="42.68 19.21 40.51 22.71 20.56 22.71 22.73 19.21 42.68 19.21"/><g class="cls-2"><g class="cls-6"><g class="cls-2"><path class="cls-4" d="M22.73,19.21l-2.17,3.5a4,4,0,0,0-3.48,1.76L19.25,21a4,4,0,0,1,3.48-1.76"/></g></g></g><polygon class="cls-7" points="52.27 42.19 50.09 45.69 46.27 27.19 48.44 23.69 52.27 42.19"/><g class="cls-2"><g class="cls-8"><g class="cls-2"><path class="cls-4" d="M17.89,23.69l-2.18,3.5a4.4,4.4,0,0,1,.52-3.25l2.17-3.5a4.4,4.4,0,0,0-.51,3.25"/></g></g></g><g class="cls-2"><g class="cls-9"><g class="cls-2"><path class="cls-4" d="M51.83,44.92l-2.17,3.5a3.64,3.64,0,0,0,.43-2.73l2.18-3.5a3.69,3.69,0,0,1-.44,2.73"/></g></g></g><g class="cls-2"><g class="cls-10"><g class="cls-2"><path class="cls-4" d="M52.68,45.45,50.51,49a4.71,4.71,0,0,1-4.14,2.1l2.17-3.5a4.71,4.71,0,0,0,4.14-2.1"/></g></g></g><polygon class="cls-7" points="21.72 42.19 19.54 45.69 15.71 27.19 17.89 23.69 21.72 42.19"/><polygon class="cls-5" points="48.54 47.55 46.37 51.05 26.42 51.05 28.6 47.55 48.54 47.55"/><path class="cls-11" d="M42.5,18.34a7.2,7.2,0,0,1,6.87,5.35l3.83,18.5c.61,3-1.48,5.36-4.66,5.36H28.6a7.2,7.2,0,0,1-6.88-5.36l-3.83-18.5c-.61-3,1.48-5.35,4.66-5.35Zm9.77,23.85-3.83-18.5a6,6,0,0,0-5.76-4.48H22.73a3.69,3.69,0,0,0-3.91,4.48l3.83,18.5a6.05,6.05,0,0,0,5.77,4.49H48.36a3.69,3.69,0,0,0,3.91-4.49"/><g class="cls-2"><g class="cls-12"><g class="cls-2"><path class="cls-4" d="M28.6,47.55l-2.18,3.5a7.21,7.21,0,0,1-6.88-5.36l2.18-3.5a7.2,7.2,0,0,0,6.88,5.36"/></g></g></g></g><g class="cls-13"><path class="cls-14" d="M42.7,18.68A6.56,6.56,0,0,1,49,23.6l3.65,18.5C53.2,44.82,51.25,47,48.3,47H28.23a6.57,6.57,0,0,1-6.32-4.92L18.26,23.6c-.54-2.72,1.42-4.92,4.37-4.92Z"/></g><g class="cls-2"><g class="cls-2"><g class="cls-15"><g class="cls-2"><path class="cls-16" d="M39.67,34.27l-2.17,3.5a6.43,6.43,0,0,0-.42-1.92,7,7,0,0,0-1.29-2.28A4.54,4.54,0,0,0,34,32.26,4.09,4.09,0,0,0,32.41,32a3.77,3.77,0,0,0-.58,0,3.14,3.14,0,0,0-1.35.47,2.31,2.31,0,0,0-.72.74l2.17-3.5a2.31,2.31,0,0,1,.72-.74A3.19,3.19,0,0,1,34,28.51a3.86,3.86,0,0,1,.58,0,4.18,4.18,0,0,1,1.55.29A4.58,4.58,0,0,1,38,30.07a7,7,0,0,1,1.3,2.28,6.38,6.38,0,0,1,.41,1.92"/></g></g></g><g class="cls-2"><g class="cls-17"><g class="cls-2"><path class="cls-16" d="M39.37,35.79l-2.17,3.5a3.14,3.14,0,0,0,.3-1.52l2.17-3.5a2.92,2.92,0,0,1-.3,1.52"/></g></g></g><g class="cls-2"><g class="cls-18"><g class="cls-2"><path class="cls-16" d="M44.86,39l-2.18,3.5a.71.71,0,0,1-.51.33l2.17-3.5a.75.75,0,0,0,.52-.33"/></g></g></g><g class="cls-2"><g class="cls-19"><g class="cls-2"><path class="cls-16" d="M44.34,39.33l-2.17,3.5H42a2.86,2.86,0,0,1-.64-.09l2.17-3.5a2.87,2.87,0,0,0,.65.09h.14"/></g></g></g><g class="cls-2"><g class="cls-20"><g class="cls-2"><path class="cls-16" d="M43.55,39.24l-2.17,3.5c-.33-.09-.73-.23-1.2-.41s-1-.39-1.55-.65l2.17-3.5c.57.26,1.08.48,1.55.65s.87.32,1.2.41"/></g></g></g><g class="cls-2"><g class="cls-21"><g class="cls-2"><path class="cls-16" d="M38.41,36.81l-2.18,3.5A8.68,8.68,0,0,0,35,39.86a8,8,0,0,1-1-.34L36.15,36a8.68,8.68,0,0,0,1,.34,8.85,8.85,0,0,1,1.25.45"/></g></g></g><g class="cls-2"><g class="cls-22"><g class="cls-2"><path class="cls-16" d="M36.15,36,34,39.52a.68.68,0,0,1-.39-.42.52.52,0,0,1,0-.47l2.18-3.5a.53.53,0,0,0-.06.47.74.74,0,0,0,.39.42"/></g></g></g><g class="cls-2"><g class="cls-23"><g class="cls-2"><path class="cls-16" d="M40.8,38.18l-2.17,3.5a6.24,6.24,0,0,1-2.91,1,8,8,0,0,1-1.18.08,7.72,7.72,0,0,1-1.68-.18,7,7,0,0,1-2.47-1,7.69,7.69,0,0,1-1.94-1.88,9.19,9.19,0,0,1-1.33-2.52,7.79,7.79,0,0,1-.51-2.65,4.46,4.46,0,0,1,.52-2.17l.11-.19,2.17-3.5-.11.19A4.46,4.46,0,0,0,28.78,31a7.79,7.79,0,0,0,.51,2.65,9.47,9.47,0,0,0,1.33,2.52,7.69,7.69,0,0,0,1.94,1.88,7,7,0,0,0,2.48,1,7.63,7.63,0,0,0,1.67.18,7.89,7.89,0,0,0,1.18-.08,6.24,6.24,0,0,0,2.91-1"/></g></g></g><path class="cls-24" d="M44.94,38.4a.73.73,0,0,1-.6.93H44.2a2.87,2.87,0,0,1-.65-.09c-.33-.09-.73-.23-1.2-.41s-1-.39-1.55-.65a6.24,6.24,0,0,1-2.91,1,7.89,7.89,0,0,1-1.18.08A7.63,7.63,0,0,1,35,39.12a7,7,0,0,1-2.48-1,7.69,7.69,0,0,1-1.94-1.88,9.47,9.47,0,0,1-1.33-2.52A7.79,7.79,0,0,1,28.78,31a4.46,4.46,0,0,1,.52-2.17,4,4,0,0,1,1.51-1.54,6.41,6.41,0,0,1,2.48-.78,8.83,8.83,0,0,1,1.24-.09,7.54,7.54,0,0,1,2.48.4,7.14,7.14,0,0,1,3,1.91A9.32,9.32,0,0,1,41.91,32a5.77,5.77,0,0,1,0,4.85c.47.2,1,.38,1.51.56a5.33,5.33,0,0,1,1.09.43A1,1,0,0,1,44.94,38.4Zm-5.27-4.13a6.38,6.38,0,0,0-.41-1.92A7,7,0,0,0,38,30.07a4.58,4.58,0,0,0-1.83-1.31,4.18,4.18,0,0,0-1.55-.29,3.86,3.86,0,0,0-.58,0,3.19,3.19,0,0,0-1.35.47,2.41,2.41,0,0,0-.85,1,3.31,3.31,0,0,0-.26,1.47,6.5,6.5,0,0,0,.39,1.91,6.16,6.16,0,0,0,2.21,3.13,4.27,4.27,0,0,0,2.47.82,3.39,3.39,0,0,0,.55,0,3.21,3.21,0,0,0,1.25-.43,8.85,8.85,0,0,0-1.25-.45,8.68,8.68,0,0,1-1-.34.74.74,0,0,1-.39-.42.55.55,0,0,1,.06-.48.6.6,0,0,1,.42-.25h.16a9,9,0,0,1,3,.93,2.92,2.92,0,0,0,.3-1.52"/></g></g></g></svg>