<svg xmlns="http://www.w3.org/2000/svg" xmlns:xlink="http://www.w3.org/1999/xlink" viewBox="0 0 68.85 68.85"><defs><style>.cls-1{fill:none;}.cls-2{fill:#150100;}.cls-3{isolation:isolate;}.cls-4{clip-path:url(#clip-path);}.cls-5{fill:#006974;}.cls-6{fill:#00707c;}.cls-7{clip-path:url(#clip-path-2);}.cls-8{fill:#006570;}.cls-9{clip-path:url(#clip-path-3);}.cls-10{clip-path:url(#clip-path-4);}.cls-11{clip-path:url(#clip-path-5);}.cls-12{fill:#00c6dc;}.cls-13{clip-path:url(#clip-path-6);}.cls-14{opacity:0.25;}.cls-15{fill:#fbfbfb;}.cls-16{clip-path:url(#clip-path-7);}.cls-17{fill:#486f85;}.cls-18{clip-path:url(#clip-path-8);}.cls-19{clip-path:url(#clip-path-9);}.cls-20{clip-path:url(#clip-path-10);}.cls-21{clip-path:url(#clip-path-11);}.cls-22{clip-path:url(#clip-path-12);}.cls-23{clip-path:url(#clip-path-13);}.cls-24{clip-path:url(#clip-path-14);}.cls-25{fill:#88d2fb;}</style><clipPath id="clip-path"><path class="cls-1" d="M48.4,23.42l-2.17,3.5a6,6,0,0,0-5.76-4.48l2.17-3.5A6,6,0,0,1,48.4,23.42Z"/></clipPath><clipPath id="clip-path-2"><path class="cls-1" d="M17.05,24.2l2.17-3.5a4,4,0,0,1,3.48-1.76l-2.18,3.5A4,4,0,0,0,17.05,24.2Z"/></clipPath><clipPath id="clip-path-3"><path class="cls-1" d="M16.2,23.68l2.17-3.5a4.37,4.37,0,0,0-.52,3.24l-2.17,3.5A4.37,4.37,0,0,1,16.2,23.68Z"/></clipPath><clipPath id="clip-path-4"><path class="cls-1" d="M51.8,44.66l-2.18,3.5a3.7,3.7,0,0,0,.44-2.73l2.17-3.5A3.7,3.7,0,0,1,51.8,44.66Z"/></clipPath><clipPath id="clip-path-5"><path class="cls-1" d="M52.65,45.18l-2.18,3.5a4.71,4.71,0,0,1-4.14,2.1l2.18-3.5A4.72,4.72,0,0,0,52.65,45.18Z"/></clipPath><clipPath id="clip-path-6"><path class="cls-1" d="M28.56,47.28l-2.17,3.5a7.2,7.2,0,0,1-6.88-5.35l2.17-3.5A7.21,7.21,0,0,0,28.56,47.28Z"/></clipPath><clipPath id="clip-path-7"><path class="cls-1" d="M29.72,33l2.18-3.5a2.28,2.28,0,0,1,.72-.73A3.15,3.15,0,0,1,34,28.24a5.65,5.65,0,0,1,.58,0,4.33,4.33,0,0,1,1.54.29,4.57,4.57,0,0,1,1.84,1.32,7,7,0,0,1,1.29,2.27A6.43,6.43,0,0,1,39.64,34l-2.18,3.5a6.09,6.09,0,0,0-.41-1.92,7.13,7.13,0,0,0-1.29-2.27A4.63,4.63,0,0,0,33.92,32a4.38,4.38,0,0,0-1.54-.29,5.85,5.85,0,0,0-.59,0,3.11,3.11,0,0,0-1.34.48A2.31,2.31,0,0,0,29.72,33Z"/></clipPath><clipPath id="clip-path-8"><path class="cls-1" d="M39.34,35.52,37.16,39a2.92,2.92,0,0,0,.3-1.52L39.64,34A3.14,3.14,0,0,1,39.34,35.52Z"/></clipPath><clipPath id="clip-path-9"><path class="cls-1" d="M44.82,38.73l-2.17,3.5a.73.73,0,0,1-.52.33l2.17-3.5A.71.71,0,0,0,44.82,38.73Z"/></clipPath><clipPath id="clip-path-10"><path class="cls-1" d="M44.3,39.06l-2.17,3.5H42a3,3,0,0,1-.65-.1L43.51,39a3,3,0,0,0,.65.1Z"/></clipPath><clipPath id="clip-path-11"><path class="cls-1" d="M43.51,39l-2.17,3.5a9.77,9.77,0,0,1-1.19-.4c-.48-.18-1-.4-1.56-.66l2.17-3.5q.85.39,1.56.66A10.38,10.38,0,0,0,43.51,39Z"/></clipPath><clipPath id="clip-path-12"><path class="cls-1" d="M38.37,36.54,36.2,40A10.22,10.22,0,0,0,35,39.6a8,8,0,0,1-1-.35l2.18-3.5a7.66,7.66,0,0,0,1,.35A10.22,10.22,0,0,1,38.37,36.54Z"/></clipPath><clipPath id="clip-path-13"><path class="cls-1" d="M33.61,38.37l2.17-3.5a.5.5,0,0,0-.05.46.68.68,0,0,0,.39.42l-2.18,3.5a.74.74,0,0,1-.39-.42A.53.53,0,0,1,33.61,38.37Z"/></clipPath><clipPath id="clip-path-14"><path class="cls-1" d="M27.2,31.91l2.17-3.5-.1.18a4.37,4.37,0,0,0-.52,2.18,7.64,7.64,0,0,0,.51,2.65,9.1,9.1,0,0,0,1.32,2.51,7.56,7.56,0,0,0,2,1.88,7.23,7.23,0,0,0,2.47,1,7.72,7.72,0,0,0,1.68.18A9.46,9.46,0,0,0,37.85,39a6.16,6.16,0,0,0,2.91-1.05l-2.17,3.5a6.16,6.16,0,0,1-2.91,1.05,9.48,9.48,0,0,1-1.18.08,7.7,7.7,0,0,1-1.67-.18,7.2,7.2,0,0,1-2.48-1,7.69,7.69,0,0,1-1.94-1.88,9.41,9.41,0,0,1-1.33-2.51,7.62,7.62,0,0,1-.5-2.65,4.36,4.36,0,0,1,.51-2.18Z"/></clipPath></defs><g id="Layer_2" data-name="Layer 2"><g id="Layer_1-2" data-name="Layer 1"><circle class="cls-2" cx="34.43" cy="34.43" r="34.43"/><g class="cls-3"><g class="cls-3"><g class="cls-4"><g class="cls-3"><path class="cls-5" d="M48.4,23.42l-2.17,3.5a6,6,0,0,0-5.76-4.48l2.17-3.5a6,6,0,0,1,5.76,4.48"/></g></g></g><polygon class="cls-6" points="42.64 18.94 40.47 22.44 20.52 22.44 22.7 18.94 42.64 18.94"/><g class="cls-3"><g class="cls-7"><g class="cls-3"><path class="cls-5" d="M22.7,18.94l-2.18,3.5a4,4,0,0,0-3.47,1.76l2.17-3.5a4,4,0,0,1,3.48-1.76"/></g></g></g><polygon class="cls-8" points="52.23 41.93 50.06 45.43 46.23 26.92 48.4 23.42 52.23 41.93"/><g class="cls-3"><g class="cls-9"><g class="cls-3"><path class="cls-5" d="M17.85,23.42l-2.17,3.5a4.37,4.37,0,0,1,.52-3.24l2.17-3.5a4.37,4.37,0,0,0-.52,3.24"/></g></g></g><g class="cls-3"><g class="cls-10"><g class="cls-3"><path class="cls-5" d="M51.8,44.66l-2.18,3.5a3.7,3.7,0,0,0,.44-2.73l2.17-3.5a3.7,3.7,0,0,1-.43,2.73"/></g></g></g><g class="cls-3"><g class="cls-11"><g class="cls-3"><path class="cls-5" d="M52.65,45.18l-2.18,3.5a4.71,4.71,0,0,1-4.14,2.1l2.18-3.5a4.72,4.72,0,0,0,4.14-2.1"/></g></g></g><polygon class="cls-8" points="21.68 41.93 19.51 45.43 15.68 26.92 17.85 23.42 21.68 41.93"/><polygon class="cls-6" points="48.51 47.28 46.34 50.78 26.39 50.78 28.56 47.28 48.51 47.28"/><path class="cls-12" d="M42.46,18.08a7.19,7.19,0,0,1,6.87,5.34l3.83,18.51c.61,3-1.48,5.35-4.65,5.35H28.56a7.21,7.21,0,0,1-6.88-5.35L17.85,23.42c-.61-2.94,1.48-5.34,4.67-5.34Zm9.77,23.85L48.4,23.42a6,6,0,0,0-5.76-4.48H22.7c-2.67,0-4.43,2-3.92,4.48l3.83,18.51a6.06,6.06,0,0,0,5.77,4.49h20a3.69,3.69,0,0,0,3.9-4.49"/><g class="cls-3"><g class="cls-13"><g class="cls-3"><path class="cls-5" d="M28.56,47.28l-2.17,3.5a7.2,7.2,0,0,1-6.88-5.35l2.17-3.5a7.21,7.21,0,0,0,6.88,5.35"/></g></g></g></g><g class="cls-14"><path class="cls-15" d="M42.67,18.41A6.57,6.57,0,0,1,49,23.34l3.65,18.49c.54,2.72-1.42,4.92-4.37,4.92H28.19a6.55,6.55,0,0,1-6.31-4.92L18.23,23.34c-.54-2.72,1.42-4.93,4.37-4.93Z"/></g><g class="cls-3"><g class="cls-3"><g class="cls-16"><g class="cls-3"><path class="cls-17" d="M39.64,34l-2.18,3.5a6.09,6.09,0,0,0-.41-1.92,7.13,7.13,0,0,0-1.29-2.27A4.63,4.63,0,0,0,33.92,32a4.38,4.38,0,0,0-1.54-.29,5.85,5.85,0,0,0-.59,0,3.11,3.11,0,0,0-1.34.48,2.31,2.31,0,0,0-.73.73l2.18-3.5a2.28,2.28,0,0,1,.72-.73A3.15,3.15,0,0,1,34,28.24a5.65,5.65,0,0,1,.58,0,4.33,4.33,0,0,1,1.54.29,4.57,4.57,0,0,1,1.84,1.32,7,7,0,0,1,1.29,2.27A6.43,6.43,0,0,1,39.64,34"/></g></g></g><g class="cls-3"><g class="cls-18"><g class="cls-3"><path class="cls-17" d="M39.34,35.52,37.16,39a2.92,2.92,0,0,0,.3-1.52L39.64,34a3.14,3.14,0,0,1-.3,1.52"/></g></g></g><g class="cls-3"><g class="cls-19"><g class="cls-3"><path class="cls-17" d="M44.82,38.73l-2.17,3.5a.73.73,0,0,1-.52.33l2.17-3.5a.71.71,0,0,0,.52-.33"/></g></g></g><g class="cls-3"><g class="cls-20"><g class="cls-3"><path class="cls-17" d="M44.3,39.06l-2.17,3.5H42a3,3,0,0,1-.65-.1L43.51,39a3,3,0,0,0,.65.1h.14"/></g></g></g><g class="cls-3"><g class="cls-21"><g class="cls-3"><path class="cls-17" d="M43.51,39l-2.17,3.5a9.77,9.77,0,0,1-1.19-.4c-.48-.18-1-.4-1.56-.66l2.17-3.5q.85.39,1.56.66a10.38,10.38,0,0,0,1.19.4"/></g></g></g><g class="cls-3"><g class="cls-22"><g class="cls-3"><path class="cls-17" d="M38.37,36.54,36.2,40A10.22,10.22,0,0,0,35,39.6a8,8,0,0,1-1-.35l2.18-3.5a7.66,7.66,0,0,0,1,.35,10.22,10.22,0,0,1,1.24.44"/></g></g></g><g class="cls-3"><g class="cls-23"><g class="cls-3"><path class="cls-17" d="M36.12,35.75l-2.18,3.5a.74.74,0,0,1-.39-.42.53.53,0,0,1,.06-.46l2.17-3.5a.5.5,0,0,0-.05.46.68.68,0,0,0,.39.42"/></g></g></g><g class="cls-3"><g class="cls-24"><g class="cls-3"><path class="cls-17" d="M40.76,37.91l-2.17,3.5a6.16,6.16,0,0,1-2.91,1.05,9.48,9.48,0,0,1-1.18.08,7.7,7.7,0,0,1-1.67-.18,7.2,7.2,0,0,1-2.48-1,7.69,7.69,0,0,1-1.94-1.88,9.41,9.41,0,0,1-1.33-2.51,7.62,7.62,0,0,1-.5-2.65,4.36,4.36,0,0,1,.51-2.18l.11-.18,2.17-3.5-.1.18a4.37,4.37,0,0,0-.52,2.18,7.64,7.64,0,0,0,.51,2.65,9.1,9.1,0,0,0,1.32,2.51,7.56,7.56,0,0,0,2,1.88,7.23,7.23,0,0,0,2.47,1,7.72,7.72,0,0,0,1.68.18A9.46,9.46,0,0,0,37.85,39a6.16,6.16,0,0,0,2.91-1.05"/></g></g></g><path class="cls-25" d="M44.9,38.13a.71.71,0,0,1-.06.58.74.74,0,0,1-.54.35h-.14a3,3,0,0,1-.65-.1,10.38,10.38,0,0,1-1.19-.4q-.7-.27-1.56-.66A6.16,6.16,0,0,1,37.85,39a9.46,9.46,0,0,1-1.17.08A7.72,7.72,0,0,1,35,38.86a7.23,7.23,0,0,1-2.47-1,7.56,7.56,0,0,1-2-1.88,9.1,9.1,0,0,1-1.32-2.51,7.64,7.64,0,0,1-.51-2.65,4.37,4.37,0,0,1,.52-2.18,4,4,0,0,1,1.5-1.53,6.25,6.25,0,0,1,2.48-.79,9,9,0,0,1,1.25-.09,7.48,7.48,0,0,1,2.47.4,7.14,7.14,0,0,1,3,1.91,9.12,9.12,0,0,1,1.94,3.26,5.81,5.81,0,0,1,0,4.85c.47.19,1,.38,1.51.55a5.6,5.6,0,0,1,1.09.43A1,1,0,0,1,44.9,38.13ZM39.64,34a6.43,6.43,0,0,0-.42-1.92,7,7,0,0,0-1.29-2.27,4.57,4.57,0,0,0-1.84-1.32,4.33,4.33,0,0,0-1.54-.29,5.65,5.65,0,0,0-.58,0,3.15,3.15,0,0,0-1.35.48,2.3,2.3,0,0,0-.85,1,3.21,3.21,0,0,0-.27,1.48,6.34,6.34,0,0,0,.4,1.91,6.13,6.13,0,0,0,2.21,3.12,4.28,4.28,0,0,0,2.47.83,5.28,5.28,0,0,0,.55,0,3.24,3.24,0,0,0,1.24-.44,10.22,10.22,0,0,0-1.24-.44,7.66,7.66,0,0,1-1-.35.68.68,0,0,1-.39-.42.5.5,0,0,1,.06-.47.56.56,0,0,1,.42-.26h.16a9,9,0,0,1,3,.93,3.14,3.14,0,0,0,.3-1.52"/></g></g></g></svg>