<svg xmlns="http://www.w3.org/2000/svg" xmlns:xlink="http://www.w3.org/1999/xlink" viewBox="0 0 68.85 68.85"><defs><style>.cls-1{fill:none;}.cls-2{isolation:isolate;}.cls-3{clip-path:url(#clip-path);}.cls-4{fill:#00617a;}.cls-5{clip-path:url(#clip-path-2);}.cls-6{fill:#005e76;}.cls-7{clip-path:url(#clip-path-3);}.cls-8{clip-path:url(#clip-path-4);}.cls-9{fill:#005c73;}.cls-10{clip-path:url(#clip-path-5);}.cls-11{fill:#00c5f6;}.cls-12{clip-path:url(#clip-path-6);}.cls-13{clip-path:url(#clip-path-7);}.cls-14{clip-path:url(#clip-path-8);}.cls-15{clip-path:url(#clip-path-9);}.cls-16{clip-path:url(#clip-path-10);}.cls-17{clip-path:url(#clip-path-11);}.cls-18{clip-path:url(#clip-path-12);}.cls-19{clip-path:url(#clip-path-13);}.cls-20{clip-path:url(#clip-path-14);}</style><clipPath id="clip-path"><path class="cls-1" d="M48.91,28l-1.55,2.15a1.07,1.07,0,0,1-.14.16l1.54-2.15A.75.75,0,0,0,48.91,28Z"/></clipPath><clipPath id="clip-path-2"><path class="cls-1" d="M48.76,28.14l-1.54,2.15a1.74,1.74,0,0,1-1.23.36l1.55-2.15A1.73,1.73,0,0,0,48.76,28.14Z"/></clipPath><clipPath id="clip-path-3"><path class="cls-1" d="M33.89,28.54l1.55-2.15a1.11,1.11,0,0,0-.19.8,1.32,1.32,0,0,0,.52.95l-1.55,2.15a1.31,1.31,0,0,1-.51-.95A1.16,1.16,0,0,1,33.89,28.54Z"/></clipPath><clipPath id="clip-path-4"><path class="cls-1" d="M37.06,28.5l-1.54,2.15a2,2,0,0,1-1.3-.36l1.55-2.15A2,2,0,0,0,37.06,28.5Z"/></clipPath><clipPath id="clip-path-5"><path class="cls-1" d="M44.91,41.33l-1.54,2.15-.06.08a1.4,1.4,0,0,1-1.13.48,1.74,1.74,0,0,1-1.24-.48,2.26,2.26,0,0,1-.61-1.46L41.87,40a2.32,2.32,0,0,0,.61,1.46,1.76,1.76,0,0,0,1.25.48,1.38,1.38,0,0,0,1.12-.48A.42.42,0,0,0,44.91,41.33Z"/></clipPath><clipPath id="clip-path-6"><path class="cls-1" d="M22.24,31.76l1.54-2.15,0-.07-1.54,2.15Z"/></clipPath><clipPath id="clip-path-7"><path class="cls-1" d="M32.16,36.12l-1.55,2.15a7.91,7.91,0,0,0,.08-2.42,8,8,0,0,0-.9-3,4.89,4.89,0,0,0-1.86-1.91,5,5,0,0,0-2.52-.65,4.34,4.34,0,0,0-1.79.36,3.49,3.49,0,0,0-1.33,1l1.54-2.15a3.52,3.52,0,0,1,1.34-1A4.29,4.29,0,0,1,27,28.14a5,5,0,0,1,2.53.65,4.86,4.86,0,0,1,1.85,1.91,7.82,7.82,0,0,1,.9,3A7.93,7.93,0,0,1,32.16,36.12Z"/></clipPath><clipPath id="clip-path-8"><path class="cls-1" d="M34.41,39.27l-1.55,2.15a3.9,3.9,0,0,1-.31.4l1.55-2.15C34.21,39.54,34.31,39.41,34.41,39.27Z"/></clipPath><clipPath id="clip-path-9"><path class="cls-1" d="M31.44,37.79l-1.55,2.15a4.33,4.33,0,0,0,.72-1.67l1.55-2.15A4.65,4.65,0,0,1,31.44,37.79Z"/></clipPath><clipPath id="clip-path-10"><path class="cls-1" d="M37.15,42.64l-1.54,2.15-.07.09,1.55-2.15Z"/></clipPath><clipPath id="clip-path-11"><path class="cls-1" d="M37.09,42.73l-1.55,2.15a1,1,0,0,1-.76.34,2.45,2.45,0,0,1-.94-.23,11.54,11.54,0,0,1-1.33-.69l-1.71-1,1.55-2.15c.61.39,1.18.74,1.7,1a12.44,12.44,0,0,0,1.34.69,2.45,2.45,0,0,0,.94.23A1,1,0,0,0,37.09,42.73Z"/></clipPath><clipPath id="clip-path-12"><path class="cls-1" d="M29.83,39l-1.54,2.15a9.18,9.18,0,0,0-1.39-.75,8.65,8.65,0,0,1-1.12-.58l1.54-2.15a9,9,0,0,0,1.13.58A9.53,9.53,0,0,1,29.83,39Z"/></clipPath><clipPath id="clip-path-13"><path class="cls-1" d="M25.54,38.8l1.55-2.15a.63.63,0,0,0-.12.46.74.74,0,0,0,.35.58l-1.54,2.15a.78.78,0,0,1-.36-.58A.74.74,0,0,1,25.54,38.8Z"/></clipPath><clipPath id="clip-path-14"><path class="cls-1" d="M19.26,30.33l1.54-2.15a6.41,6.41,0,0,0-1,2.2,9.49,9.49,0,0,0-.18,3.32,10.62,10.62,0,0,0,.86,3.3,8.43,8.43,0,0,0,1.82,2.62A7.83,7.83,0,0,0,25,41.31a10,10,0,0,0,3.46.58,8.38,8.38,0,0,0,3.87-.79L30.8,43.25a8.33,8.33,0,0,1-3.87.79,10,10,0,0,1-3.46-.58,7.88,7.88,0,0,1-2.7-1.69A8.33,8.33,0,0,1,19,39.16a11.05,11.05,0,0,1-.87-3.31,9.48,9.48,0,0,1,.19-3.32A6.41,6.41,0,0,1,19.26,30.33Z"/></clipPath></defs><g id="Layer_2" data-name="Layer 2"><g id="Layer_1-2" data-name="Layer 1"><circle cx="34.43" cy="34.43" r="34.43"/><g class="cls-2"><g class="cls-2"><g class="cls-3"><g class="cls-2"><path class="cls-4" d="M48.91,28l-1.55,2.15a1.07,1.07,0,0,1-.14.16l1.54-2.15a.75.75,0,0,0,.15-.16"/></g></g></g><g class="cls-2"><g class="cls-5"><g class="cls-2"><path class="cls-4" d="M48.76,28.14l-1.54,2.15a1.74,1.74,0,0,1-1.23.36l1.55-2.15a1.73,1.73,0,0,0,1.22-.36"/></g></g></g><polygon class="cls-6" points="47.54 28.5 45.99 30.65 42.4 30.65 43.94 28.5 47.54 28.5"/><polygon class="cls-6" points="40.66 28.5 39.12 30.65 35.52 30.65 37.06 28.5 40.66 28.5"/><g class="cls-2"><g class="cls-7"><g class="cls-2"><path class="cls-4" d="M35.77,28.14l-1.55,2.15a1.31,1.31,0,0,1-.51-.95,1.16,1.16,0,0,1,.18-.8l1.55-2.15a1.11,1.11,0,0,0-.19.8,1.32,1.32,0,0,0,.52.95"/></g></g></g><g class="cls-2"><g class="cls-8"><g class="cls-2"><path class="cls-4" d="M37.06,28.5l-1.54,2.15a2,2,0,0,1-1.3-.36l1.55-2.15a2,2,0,0,0,1.29.36"/></g></g></g><polygon class="cls-9" points="41.87 39.95 40.33 42.1 39.12 30.65 40.66 28.5 41.87 39.95"/><g class="cls-2"><g class="cls-10"><g class="cls-2"><path class="cls-4" d="M44.91,41.33l-1.54,2.15-.06.08a1.4,1.4,0,0,1-1.13.48,1.74,1.74,0,0,1-1.24-.48,2.26,2.26,0,0,1-.61-1.46L41.87,40a2.32,2.32,0,0,0,.61,1.46,1.76,1.76,0,0,0,1.25.48,1.38,1.38,0,0,0,1.12-.48.42.42,0,0,0,.06-.08"/></g></g></g><path class="cls-11" d="M47.26,25.87a2.06,2.06,0,0,1,1.31.37,1.38,1.38,0,0,1,.52,1,1.06,1.06,0,0,1-.33.95,1.73,1.73,0,0,1-1.22.36h-3.6L45.15,40a1.89,1.89,0,0,1-.3,1.46,1.38,1.38,0,0,1-1.12.48,1.76,1.76,0,0,1-1.25-.48A2.32,2.32,0,0,1,41.87,40L40.66,28.5h-3.6a2,2,0,0,1-1.29-.36,1.32,1.32,0,0,1-.52-.95,1.1,1.1,0,0,1,.33-1,1.77,1.77,0,0,1,1.2-.35Z"/><g class="cls-2"><g class="cls-12"><g class="cls-2"><path class="cls-4" d="M23.83,29.54l-1.54,2.15-.05.07,1.54-2.15,0-.07"/></g></g></g><g class="cls-2"><g class="cls-13"><g class="cls-2"><path class="cls-4" d="M32.16,36.12l-1.55,2.15a7.91,7.91,0,0,0,.08-2.42,8,8,0,0,0-.9-3,4.89,4.89,0,0,0-1.86-1.91,5,5,0,0,0-2.52-.65,4.34,4.34,0,0,0-1.79.36,3.49,3.49,0,0,0-1.33,1l1.54-2.15a3.52,3.52,0,0,1,1.34-1A4.29,4.29,0,0,1,27,28.14a5,5,0,0,1,2.53.65,4.86,4.86,0,0,1,1.85,1.91,7.82,7.82,0,0,1,.9,3,7.93,7.93,0,0,1-.07,2.42"/></g></g></g><g class="cls-2"><g class="cls-14"><g class="cls-2"><path class="cls-4" d="M34.41,39.27l-1.55,2.15a3.9,3.9,0,0,1-.31.4l1.55-2.15c.11-.13.21-.26.31-.4"/></g></g></g><g class="cls-2"><g class="cls-15"><g class="cls-2"><path class="cls-4" d="M31.44,37.79l-1.55,2.15a4.33,4.33,0,0,0,.72-1.67l1.55-2.15a4.65,4.65,0,0,1-.72,1.67"/></g></g></g><g class="cls-2"><g class="cls-16"><g class="cls-2"><path class="cls-4" d="M37.15,42.64l-1.54,2.15-.07.09,1.55-2.15.06-.09"/></g></g></g><g class="cls-2"><g class="cls-17"><g class="cls-2"><path class="cls-4" d="M37.09,42.73l-1.55,2.15a1,1,0,0,1-.76.34,2.45,2.45,0,0,1-.94-.23,11.54,11.54,0,0,1-1.33-.69l-1.71-1,1.55-2.15c.61.39,1.18.74,1.7,1a12.44,12.44,0,0,0,1.34.69,2.45,2.45,0,0,0,.94.23,1,1,0,0,0,.76-.34"/></g></g></g><g class="cls-2"><g class="cls-18"><g class="cls-2"><path class="cls-4" d="M29.83,39l-1.54,2.15a9.18,9.18,0,0,0-1.39-.75,8.65,8.65,0,0,1-1.12-.58l1.54-2.15a9,9,0,0,0,1.13.58,9.53,9.53,0,0,1,1.38.75"/></g></g></g><g class="cls-2"><g class="cls-19"><g class="cls-2"><path class="cls-4" d="M27.32,37.69l-1.54,2.15a.78.78,0,0,1-.36-.58.74.74,0,0,1,.12-.46l1.55-2.15a.63.63,0,0,0-.12.46.74.74,0,0,0,.35.58"/></g></g></g><g class="cls-2"><g class="cls-20"><g class="cls-2"><path class="cls-4" d="M32.35,41.1,30.8,43.25a8.33,8.33,0,0,1-3.87.79,10,10,0,0,1-3.46-.58,7.88,7.88,0,0,1-2.7-1.69A8.33,8.33,0,0,1,19,39.16a11.05,11.05,0,0,1-.87-3.31,9.48,9.48,0,0,1,.19-3.32,6.41,6.41,0,0,1,1-2.2l1.54-2.15a6.41,6.41,0,0,0-1,2.2,9.49,9.49,0,0,0-.18,3.32,10.62,10.62,0,0,0,.86,3.3,8.43,8.43,0,0,0,1.82,2.62A7.83,7.83,0,0,0,25,41.31a10,10,0,0,0,3.46.58,8.38,8.38,0,0,0,3.87-.79"/></g></g></g><path class="cls-11" d="M37,41.29a1.07,1.07,0,0,1,.35.75.9.9,0,0,1-.24.69,1,1,0,0,1-.76.34,2.45,2.45,0,0,1-.94-.23,12.44,12.44,0,0,1-1.34-.69c-.52-.31-1.09-.66-1.7-1a8.38,8.38,0,0,1-3.87.79A10,10,0,0,1,25,41.31a7.83,7.83,0,0,1-2.71-1.69A8.43,8.43,0,0,1,20.49,37a10.62,10.62,0,0,1-.86-3.3,9.49,9.49,0,0,1,.18-3.32A6.22,6.22,0,0,1,21.1,27.8a5.78,5.78,0,0,1,2.31-1.63,8.68,8.68,0,0,1,3.27-.57,9.66,9.66,0,0,1,4.45,1,7.65,7.65,0,0,1,3.05,2.84,10,10,0,0,1,1.39,4.3,7.53,7.53,0,0,1-1.47,5.94c.52.31,1.08.62,1.67.91A6.34,6.34,0,0,1,37,41.29Zm-4.82-5.17a7.93,7.93,0,0,0,.07-2.42,7.82,7.82,0,0,0-.9-3,4.86,4.86,0,0,0-1.85-1.91A5,5,0,0,0,27,28.14a4.29,4.29,0,0,0-1.78.36,3.52,3.52,0,0,0-1.34,1,4.43,4.43,0,0,0-.76,1.76A7.49,7.49,0,0,0,23,33.7a6.81,6.81,0,0,0,1.76,4.19,4.77,4.77,0,0,0,3.46,1.47A4.39,4.39,0,0,0,29.83,39a9.53,9.53,0,0,0-1.38-.75,9,9,0,0,1-1.13-.58.74.74,0,0,1-.35-.58.67.67,0,0,1,.21-.57.83.83,0,0,1,.59-.25c.68,0,1.86.55,3.56,1.64a4.43,4.43,0,0,0,.83-1.81"/></g></g></g></svg>