<svg xmlns="http://www.w3.org/2000/svg" xmlns:xlink="http://www.w3.org/1999/xlink" viewBox="0 0 37.7 32.7"><defs><style>.cls-1{fill:none;}.cls-2{isolation:isolate;}.cls-3{clip-path:url(#clip-path);}.cls-4{fill:#006974;}.cls-5{fill:#00707c;}.cls-6{clip-path:url(#clip-path-2);}.cls-7{fill:#006570;}.cls-8{clip-path:url(#clip-path-3);}.cls-9{clip-path:url(#clip-path-4);}.cls-10{clip-path:url(#clip-path-5);}.cls-11{fill:#00c6dc;}.cls-12{clip-path:url(#clip-path-6);}.cls-13{opacity:0.25;}.cls-14{fill:#fbfbfb;}.cls-15{clip-path:url(#clip-path-7);}.cls-16{fill:#486f85;}.cls-17{clip-path:url(#clip-path-8);}.cls-18{clip-path:url(#clip-path-9);}.cls-19{clip-path:url(#clip-path-10);}.cls-20{clip-path:url(#clip-path-11);}.cls-21{clip-path:url(#clip-path-12);}.cls-22{clip-path:url(#clip-path-13);}.cls-23{clip-path:url(#clip-path-14);}.cls-24{fill:#88d2fb;}</style><clipPath id="clip-path"><path class="cls-1" d="M32.83,5.35l-2.17,3.5A6,6,0,0,0,24.9,4.37L27.07.87A6,6,0,0,1,32.83,5.35Z"/></clipPath><clipPath id="clip-path-2"><path class="cls-1" d="M1.47,6.13l2.17-3.5A4,4,0,0,1,7.12.87L5,4.37A4,4,0,0,0,1.47,6.13Z"/></clipPath><clipPath id="clip-path-3"><path class="cls-1" d="M.62,5.6,2.8,2.1a4.4,4.4,0,0,0-.52,3.25L.11,8.85A4.35,4.35,0,0,1,.62,5.6Z"/></clipPath><clipPath id="clip-path-4"><path class="cls-1" d="M36.22,26.58l-2.17,3.5a3.65,3.65,0,0,0,.43-2.73l2.18-3.5A3.7,3.7,0,0,1,36.22,26.58Z"/></clipPath><clipPath id="clip-path-5"><path class="cls-1" d="M37.07,27.11l-2.17,3.5a4.72,4.72,0,0,1-4.14,2.09l2.17-3.5A4.72,4.72,0,0,0,37.07,27.11Z"/></clipPath><clipPath id="clip-path-6"><path class="cls-1" d="M13,29.2l-2.18,3.5a7.22,7.22,0,0,1-6.88-5.35l2.18-3.5A7.2,7.2,0,0,0,13,29.2Z"/></clipPath><clipPath id="clip-path-7"><path class="cls-1" d="M14.15,14.87l2.17-3.5a2.39,2.39,0,0,1,.72-.73,3.2,3.2,0,0,1,1.35-.48,5.83,5.83,0,0,1,.59,0,4.36,4.36,0,0,1,1.54.28,4.7,4.7,0,0,1,1.83,1.32A7,7,0,0,1,23.65,14a6,6,0,0,1,.41,1.91l-2.17,3.5a6.58,6.58,0,0,0-.41-1.91,7,7,0,0,0-1.3-2.28,4.7,4.7,0,0,0-1.83-1.32,4.38,4.38,0,0,0-1.55-.28l-.58,0a3.2,3.2,0,0,0-1.35.48A2.39,2.39,0,0,0,14.15,14.87Z"/></clipPath><clipPath id="clip-path-8"><path class="cls-1" d="M23.76,17.44l-2.17,3.5a3,3,0,0,0,.3-1.52l2.17-3.5A2.92,2.92,0,0,1,23.76,17.44Z"/></clipPath><clipPath id="clip-path-9"><path class="cls-1" d="M29.25,20.66l-2.18,3.5a.67.67,0,0,1-.51.32L28.73,21A.69.69,0,0,0,29.25,20.66Z"/></clipPath><clipPath id="clip-path-10"><path class="cls-1" d="M28.73,21l-2.17,3.5h-.14a2.87,2.87,0,0,1-.65-.09l2.17-3.5a2.87,2.87,0,0,0,.65.09Z"/></clipPath><clipPath id="clip-path-11"><path class="cls-1" d="M27.94,20.9l-2.17,3.5c-.33-.09-.73-.23-1.2-.41s-1-.4-1.55-.65l2.17-3.5c.57.25,1.08.47,1.56.65A12.26,12.26,0,0,0,27.94,20.9Z"/></clipPath><clipPath id="clip-path-12"><path class="cls-1" d="M22.8,18.47,20.63,22a9.33,9.33,0,0,0-1.25-.45,10.17,10.17,0,0,1-1-.34l2.17-3.5c.2.08.53.2,1,.34A8.85,8.85,0,0,1,22.8,18.47Z"/></clipPath><clipPath id="clip-path-13"><path class="cls-1" d="M18,20.29l2.17-3.5a.56.56,0,0,0-.06.47.8.8,0,0,0,.39.42l-2.17,3.5a.73.73,0,0,1-.39-.42A.53.53,0,0,1,18,20.29Z"/></clipPath><clipPath id="clip-path-14"><path class="cls-1" d="M11.63,13.83l2.17-3.5-.11.18a4.39,4.39,0,0,0-.51,2.18,7.54,7.54,0,0,0,.5,2.65A9.47,9.47,0,0,0,15,17.86,7.86,7.86,0,0,0,17,19.74a7.18,7.18,0,0,0,2.48,1A7.7,7.7,0,0,0,21.1,21a9.48,9.48,0,0,0,1.18-.08,6.2,6.2,0,0,0,2.91-1L23,23.34a6.24,6.24,0,0,1-2.91,1,9.48,9.48,0,0,1-1.18.08,7.56,7.56,0,0,1-1.67-.18,7.18,7.18,0,0,1-2.48-1,7.86,7.86,0,0,1-1.94-1.88,9.47,9.47,0,0,1-1.33-2.52A7.79,7.79,0,0,1,11,16.19,4.5,4.5,0,0,1,11.52,14,1.74,1.74,0,0,1,11.63,13.83Z"/></clipPath></defs><g id="Layer_2" data-name="Layer 2"><g id="Layer_1-2" data-name="Layer 1"><g class="cls-2"><g class="cls-2"><g class="cls-3"><g class="cls-2"><path class="cls-4" d="M32.83,5.35l-2.17,3.5A6,6,0,0,0,24.9,4.37L27.07.87a6,6,0,0,1,5.76,4.48"/></g></g></g><polygon class="cls-5" points="27.07 0.86 24.9 4.37 4.95 4.37 7.12 0.86 27.07 0.86"/><g class="cls-2"><g class="cls-6"><g class="cls-2"><path class="cls-4" d="M7.12.87,5,4.37A4,4,0,0,0,1.47,6.13l2.17-3.5A4,4,0,0,1,7.12.87"/></g></g></g><polygon class="cls-7" points="36.66 23.85 34.48 27.35 30.66 8.85 32.83 5.35 36.66 23.85"/><g class="cls-2"><g class="cls-8"><g class="cls-2"><path class="cls-4" d="M2.28,5.35.11,8.85A4.35,4.35,0,0,1,.62,5.6L2.8,2.1a4.4,4.4,0,0,0-.52,3.25"/></g></g></g><g class="cls-2"><g class="cls-9"><g class="cls-2"><path class="cls-4" d="M36.22,26.58l-2.17,3.5a3.65,3.65,0,0,0,.43-2.73l2.18-3.5a3.7,3.7,0,0,1-.44,2.73"/></g></g></g><g class="cls-2"><g class="cls-10"><g class="cls-2"><path class="cls-4" d="M37.07,27.11l-2.17,3.5a4.72,4.72,0,0,1-4.14,2.09l2.17-3.5a4.72,4.72,0,0,0,4.14-2.09"/></g></g></g><polygon class="cls-7" points="6.11 23.85 3.93 27.35 0.11 8.85 2.28 5.35 6.11 23.85"/><polygon class="cls-5" points="32.93 29.2 30.76 32.7 10.81 32.7 12.99 29.2 32.93 29.2"/><path class="cls-11" d="M26.89,0a7.2,7.2,0,0,1,6.87,5.35l3.83,18.5c.61,2.95-1.48,5.35-4.66,5.35H13a7.2,7.2,0,0,1-6.88-5.35L2.28,5.35C1.67,2.4,3.76,0,6.94,0Zm9.77,23.85L32.83,5.35A6,6,0,0,0,27.07.87H7.12A3.69,3.69,0,0,0,3.21,5.35L7,23.85a6.05,6.05,0,0,0,5.77,4.49H32.75a3.69,3.69,0,0,0,3.91-4.49"/><g class="cls-2"><g class="cls-12"><g class="cls-2"><path class="cls-4" d="M13,29.2l-2.18,3.5a7.22,7.22,0,0,1-6.88-5.35l2.18-3.5A7.2,7.2,0,0,0,13,29.2"/></g></g></g></g><g class="cls-13"><path class="cls-14" d="M27.09.33A6.57,6.57,0,0,1,33.4,5.26l3.65,18.5c.54,2.72-1.41,4.91-4.36,4.91H12.62A6.56,6.56,0,0,1,6.3,23.76L2.65,5.26C2.11,2.54,4.07.33,7,.33Z"/></g><g class="cls-2"><g class="cls-2"><g class="cls-15"><g class="cls-2"><path class="cls-16" d="M24.06,15.92l-2.17,3.5a6.58,6.58,0,0,0-.41-1.91,7,7,0,0,0-1.3-2.28,4.7,4.7,0,0,0-1.83-1.32,4.38,4.38,0,0,0-1.55-.28l-.58,0a3.2,3.2,0,0,0-1.35.48,2.39,2.39,0,0,0-.72.73l2.17-3.5a2.39,2.39,0,0,1,.72-.73,3.2,3.2,0,0,1,1.35-.48,5.83,5.83,0,0,1,.59,0,4.36,4.36,0,0,1,1.54.28,4.7,4.7,0,0,1,1.83,1.32A7,7,0,0,1,23.65,14a6,6,0,0,1,.41,1.91"/></g></g></g><g class="cls-2"><g class="cls-17"><g class="cls-2"><path class="cls-16" d="M23.76,17.44l-2.17,3.5a3,3,0,0,0,.3-1.52l2.17-3.5a2.92,2.92,0,0,1-.3,1.52"/></g></g></g><g class="cls-2"><g class="cls-18"><g class="cls-2"><path class="cls-16" d="M29.25,20.66l-2.18,3.5a.67.67,0,0,1-.51.32L28.73,21a.69.69,0,0,0,.52-.32"/></g></g></g><g class="cls-2"><g class="cls-19"><g class="cls-2"><path class="cls-16" d="M28.73,21l-2.17,3.5h-.14a2.87,2.87,0,0,1-.65-.09l2.17-3.5a2.87,2.87,0,0,0,.65.09h.14"/></g></g></g><g class="cls-2"><g class="cls-20"><g class="cls-2"><path class="cls-16" d="M27.94,20.9l-2.17,3.5c-.33-.09-.73-.23-1.2-.41s-1-.4-1.55-.65l2.17-3.5c.57.25,1.08.47,1.56.65a12.26,12.26,0,0,0,1.19.41"/></g></g></g><g class="cls-2"><g class="cls-21"><g class="cls-2"><path class="cls-16" d="M22.8,18.47,20.63,22a9.33,9.33,0,0,0-1.25-.45,10.17,10.17,0,0,1-1-.34l2.17-3.5c.2.08.53.2,1,.34a8.85,8.85,0,0,1,1.25.45"/></g></g></g><g class="cls-2"><g class="cls-22"><g class="cls-2"><path class="cls-16" d="M20.54,17.68l-2.17,3.5a.73.73,0,0,1-.39-.42.53.53,0,0,1,.06-.47l2.17-3.5a.56.56,0,0,0-.06.47.8.8,0,0,0,.39.42"/></g></g></g><g class="cls-2"><g class="cls-23"><g class="cls-2"><path class="cls-16" d="M25.19,19.84,23,23.34a6.24,6.24,0,0,1-2.91,1,9.48,9.48,0,0,1-1.18.08,7.56,7.56,0,0,1-1.67-.18,7.18,7.18,0,0,1-2.48-1,7.86,7.86,0,0,1-1.94-1.88,9.47,9.47,0,0,1-1.33-2.52A7.79,7.79,0,0,1,11,16.19,4.5,4.5,0,0,1,11.52,14a1.74,1.74,0,0,1,.11-.18l2.17-3.5-.11.18a4.39,4.39,0,0,0-.51,2.18,7.54,7.54,0,0,0,.5,2.65A9.47,9.47,0,0,0,15,17.86,7.86,7.86,0,0,0,17,19.74a7.18,7.18,0,0,0,2.48,1A7.7,7.7,0,0,0,21.1,21a9.48,9.48,0,0,0,1.18-.08,6.2,6.2,0,0,0,2.91-1"/></g></g></g><path class="cls-24" d="M29.33,20.06a.72.72,0,0,1-.6.92h-.14a2.87,2.87,0,0,1-.65-.09,12.26,12.26,0,0,1-1.19-.41c-.48-.18-1-.4-1.56-.65a6.2,6.2,0,0,1-2.91,1A9.48,9.48,0,0,1,21.1,21a7.7,7.7,0,0,1-1.67-.18,7.18,7.18,0,0,1-2.48-1A7.86,7.86,0,0,1,15,17.86a9.47,9.47,0,0,1-1.33-2.52,7.54,7.54,0,0,1-.5-2.65,4.39,4.39,0,0,1,.51-2.18A4,4,0,0,1,15.2,9a6.41,6.41,0,0,1,2.48-.79,10.6,10.6,0,0,1,1.24-.08,7.81,7.81,0,0,1,2.48.39,7.24,7.24,0,0,1,3,1.91,9.36,9.36,0,0,1,1.94,3.26,5.81,5.81,0,0,1,0,4.85c.46.19,1,.38,1.51.55a5.43,5.43,0,0,1,1.08.43A1.09,1.09,0,0,1,29.33,20.06Zm-5.27-4.14A6,6,0,0,0,23.65,14a7,7,0,0,0-1.3-2.28,4.7,4.7,0,0,0-1.83-1.32A4.36,4.36,0,0,0,19,10.13a5.83,5.83,0,0,0-.59,0,3.2,3.2,0,0,0-1.35.48,2.41,2.41,0,0,0-.85,1,3.28,3.28,0,0,0-.26,1.47A6.56,6.56,0,0,0,16.32,15a6.13,6.13,0,0,0,2.21,3.12,4.24,4.24,0,0,0,2.47.83,3.31,3.31,0,0,0,.55,0,3.21,3.21,0,0,0,1.25-.43A8.85,8.85,0,0,0,21.55,18c-.48-.14-.81-.26-1-.34a.8.8,0,0,1-.39-.42.54.54,0,0,1,.06-.48.61.61,0,0,1,.42-.26h.16a9,9,0,0,1,3,.93,2.92,2.92,0,0,0,.3-1.52"/></g></g></g></svg>